<?xml version="1.0" encoding="UTF-8"?>
<svg width="600" height="170" viewBox="0 0 600 170" xmlns="http://www.w3.org/2000/svg">
  <!-- ICON (your original mark) -->
  <g id="gotm-icon">
    <path id="Path" fill="#000000" stroke="#63c5ff" stroke-width="10" stroke-linecap="round" d="M 9 76.000206 L 59 75"/>
    <path id="Path-copy" fill="#000000" stroke="#63c5ff" stroke-width="10" stroke-linecap="round" d="M 25 52 L 59 52"/>
    <path id="path1" fill="#000000" stroke="#63c5ff" stroke-width="10" stroke-linecap="round" d="M 25 99 L 59 99"/>
    <path id="Rounded-Rectangle" fill="#63c5ff" fill-rule="evenodd" stroke="#0a2558" stroke-width="10" d="M 53 133 C 53 149.016266 65.983742 162 82 162 L 248 162 C 264.016235 162 277 149.016266 277 133 L 277 37 C 277 20.983749 264.016235 8 248 8 L 82 8 C 65.983742 8 53 20.983749 53 37 Z"/>
    <path id="Rounded-Rectangle-copy" fill="#f4f7ff" fill-rule="evenodd" stroke="#0a2558" stroke-width="8" d="M 105 125 C 105 129.970566 109.029434 134 114 134 L 206 134 C 210.970566 134 215 129.970566 215 125 L 215 46 C 215 41.029434 210.970566 37 206 37 L 114 37 C 109.029434 37 105 41.029434 105 46 Z"/>
    <path id="path2" fill="#63c5ff" stroke="#0a2558" stroke-width="10" visibility="hidden" d="M 138.184204 17 L 204.815796 17 C 244.682037 17 277 46.101486 277 82 L 277 82 C 277 117.898506 244.682037 147 204.815796 147 L 138.184204 147 C 98.317978 147 66 117.898506 66 82 L 66 82 C 66 46.101486 98.317978 17 138.184204 17 Z"/>
    <path id="path3" fill="#f4f7ff" stroke="#0a2558" stroke-width="8" visibility="hidden" d="M 132 40 L 198 40 C 210.150269 40 220 49.849731 220 62 L 220 108 C 220 120.150261 210.150269 130 198 130 L 132 130 C 119.849739 130 110 120.150261 110 108 L 110 62 C 110 49.849731 119.849739 40 132 40 Z"/>
    <path id="path4" fill="#f6c94c" stroke="#0a2558" stroke-width="6" stroke-linejoin="round" d="M 145 60 L 185 85 L 145 110 Z"/>
    <path id="path5" fill="#0a2558" stroke="none" d="M 78 59 L 80 59 C 82.761421 59 85 61.238579 85 64 L 85 88 C 85 90.761421 82.761421 93 80 93 L 78 93 C 75.238579 93 73 90.761421 73 88 L 73 64 C 73 61.238579 75.238579 59 78 59 Z"/>
    <path id="path6" fill="#0a2558" stroke="none" d="M 68 69 L 90 69 C 92.761421 69 95 71.238579 95 74 L 95 78 C 95 80.761421 92.761421 83 90 83 L 68 83 C 65.238571 83 63 80.761421 63 78 L 63 74 C 63 71.238579 65.238571 69 68 69 Z"/>
    <path id="path7" fill="#0a2558" stroke="none" d="M 252 59 C 252 62.86599 248.865997 66 245 66 C 241.134003 66 238 62.86599 238 59 C 238 55.13401 241.134003 52 245 52 C 248.865997 52 252 55.13401 252 59 Z"/>
    <path id="path8" fill="#0a2558" stroke="none" d="M 266 76 C 266 79.86599 262.865997 83 259 83 C 255.134003 83 252 79.86599 252 76 C 252 72.13401 255.134003 69 259 69 C 262.865997 69 266 72.13401 266 76 Z"/>
    <path id="path9" fill="#0a2558" stroke="none" d="M 252 95 C 252 98.86599 248.865997 102 245 102 C 241.134003 102 238 98.86599 238 95 C 238 91.13401 241.134003 88 245 88 C 248.865997 88 252 91.13401 252 95 Z"/>
    <path id="path10" fill="#0a2558" stroke="none" d="M 238 76 C 238 79.86599 234.865997 83 231 83 C 227.134003 83 224 79.86599 224 76 C 224 72.13401 227.134003 69 231 69 C 234.865997 69 238 72.13401 238 76 Z"/>
  </g>

  <!-- WORDMARK -->
  <text x="320" y="104"
        font-family="Rubik, system-ui, -apple-system, BlinkMacSystemFont, 'Segoe UI', sans-serif"
        font-size="32"
        font-weight="600"
        fill="#0a2558"
        letter-spacing="0.03em">
    Games On The Move
  </text>
</svg>